<svg xmlns="http://www.w3.org/2000/svg" version="1.1" xmlns:xlink="http://www.w3.org/1999/xlink" xmlns:svgjs="http://svgjs.dev/svgjs" width="100%" height="100%" viewBox="0 0 1000 600"><rect width="1000" height="600" x="0" y="0" fill="#072c50"/><g><rect width="333.3333333333333" height="333.3333333333333" rx="13.333333333333334" ry="13.333333333333334" y="298.19737054316016" fill="#b88746" transform="matrix(0.45293925637454713,0,0,0.452939256374547,0,89.44480491513923)" x="275.9751892089843"/><path d="M393.1918613711147 539.8640490164279Q392.72519470444803 539.8640490164279 392.72519470444803 538.4307156830946Q392.72519470444803 536.9973823497612 393.1918613711147 536.9973823497612L393.1918613711147 536.9973823497612Q402.32519470444805 536.9973823497612 406.65852803778137 535.7973823497612Q410.9585280377814 534.5973823497612 412.52519470444804 531.0973823497612Q414.0918613711147 527.6307156830945 414.0918613711147 520.4307156830946L414.0918613711147 520.4307156830946L414.0918613711147 409.2973823497612Q414.0918613711147 402.09738234976123 412.52519470444804 398.7307156830945Q410.9585280377814 395.39738234976124 406.75852803778133 394.0640490164279Q402.5585280377814 392.73071568309456 393.4585280377814 392.73071568309456L393.4585280377814 392.73071568309456Q392.9585280377814 392.73071568309456 392.9585280377814 391.2973823497612Q392.9585280377814 389.8640490164279 393.4585280377814 389.8640490164279L393.4585280377814 389.8640490164279L489.925194704448 389.8640490164279Q492.0918613711147 389.8640490164279 492.0918613711147 392.03071568309457L492.0918613711147 392.03071568309457L492.55852803778134 421.53071568309457Q492.55852803778134 422.26404901642786 491.25852803778133 422.3973823497612Q489.925194704448 422.4973823497612 489.925194704448 421.7973823497612L489.925194704448 421.7973823497612Q489.1918613711147 409.0640490164279 482.25852803778133 401.9973823497612Q475.2918613711147 394.89738234976124 463.75852803778133 394.89738234976124L463.75852803778133 394.89738234976124L449.125194704448 394.89738234976124Q440.9585280377814 394.89738234976124 436.89186137111466 396.0973823497612Q432.7918613711147 397.2973823497612 431.125194704448 400.43071568309455Q429.4585280377814 403.53071568309457 429.4585280377814 409.53071568309457L429.4585280377814 409.53071568309457L429.4585280377814 519.4640490164279Q429.4585280377814 527.1307156830945 431.4918613711147 530.6307156830945Q433.52519470444804 534.0973823497612 439.65852803778137 535.5307156830945Q445.75852803778133 536.9973823497612 458.72519470444803 536.9973823497612L458.72519470444803 536.9973823497612Q459.4585280377814 536.9973823497612 459.4585280377814 538.4307156830946Q459.4585280377814 539.8640490164279 458.72519470444803 539.8640490164279L458.72519470444803 539.8640490164279Q448.8918613711147 539.8640490164279 443.35852803778135 539.6307156830945L443.35852803778135 539.6307156830945L421.75852803778133 539.3973823497612L405.4585280377814 539.6307156830945Q401.125194704448 539.8640490164279 393.1918613711147 539.8640490164279L393.1918613711147 539.8640490164279ZM477.6918613711147 486.8307156830946Q477.6918613711147 476.26404901642786 472.05852803778134 471.6973823497612Q466.3918613711147 467.13071568309454 453.1918613711147 467.13071568309454L453.1918613711147 467.13071568309454L422.25852803778133 467.13071568309454L422.25852803778133 462.09738234976123L453.925194704448 462.09738234976123Q466.65852803778137 462.09738234976123 472.05852803778134 458.13071568309454Q477.4585280377814 454.1973823497612 477.4585280377814 445.2973823497612L477.4585280377814 445.2973823497612Q477.4585280377814 444.8307156830945 478.8918613711147 444.8307156830945Q480.32519470444805 444.8307156830945 480.32519470444805 445.2973823497612L480.32519470444805 445.2973823497612L480.0918613711147 464.73071568309456Q480.0918613711147 471.6973823497612 480.32519470444805 475.2973823497612L480.32519470444805 475.2973823497612L480.55852803778134 486.8307156830946Q480.55852803778134 487.2973823497612 479.125194704448 487.2973823497612Q477.6918613711147 487.2973823497612 477.6918613711147 486.8307156830946L477.6918613711147 486.8307156830946Z " fill="#072c50" transform="matrix(0.45293925637454713,0,0,0.452939256374547,0,89.44480491513923)"/><path d="M693.099778000329 537.0511335906544Q692.641862649834 537.0511335906544 692.641862649834 535.6446792998483Q692.641862649834 534.2382250090421 693.099778000329 534.2382250090421L693.099778000329 534.2382250090421Q702.0618355743032 534.2382250090421 706.3139066860429 533.0607283934835Q710.5332695584614 531.8832317779248 712.0705568065518 528.448866649212Q713.6078440546422 525.0472097598204 713.6078440546422 517.9822300664684L713.6078440546422 517.9822300664684L713.6078440546422 408.9329601700084Q713.6078440546422 401.8679804766565 712.0705568065518 398.56444830522804Q710.5332695584614 395.2936243731206 706.4120314040061 393.9852948002777Q702.2907932495508 392.6769652274348 693.3614439148977 392.6769652274348L693.3614439148977 392.6769652274348Q692.8708203250816 392.6769652274348 692.8708203250816 391.27051093662857Q692.8708203250816 389.8640566458224 693.3614439148977 389.8640566458224L693.3614439148977 389.8640566458224L788.0190885100851 389.8640566458224Q790.145124065955 389.8640566458224 790.145124065955 391.9900922016922L790.145124065955 391.9900922016922L790.60303941645 420.9368840008425Q790.60303941645 421.65646526590615 789.3274180829281 421.7872982231904Q788.0190885100851 421.88542294115365 788.0190885100851 421.1985499154111L788.0190885100851 421.1985499154111Q787.2995072450216 408.7040024947609 780.4961934662382 401.76985575869327Q773.6601714481338 394.8030007833045 762.3431206430422 394.8030007833045L762.3431206430422 394.8030007833045L747.9842035810908 394.8030007833045Q739.9706849474278 394.8030007833045 735.9802797502567 395.9804973988632Q731.9571663137647 397.15799401442183 730.321754347711 400.2325685106028Q728.6863423816573 403.27443476746265 728.6863423816573 409.1619178452559L728.6863423816573 409.1619178452559L728.6863423816573 517.0336911261572Q728.6863423816573 524.5565861700043 730.6815449802428 527.9909512987169Q732.6767475788283 531.3926081881087 738.695063613906 532.7990624789148Q744.6806714096624 534.2382250090421 757.40417650556 534.2382250090421L757.40417650556 534.2382250090421Q758.1237577706237 534.2382250090421 758.1237577706237 535.6446792998483Q758.1237577706237 537.0511335906544 757.40417650556 537.0511335906544L757.40417650556 537.0511335906544Q747.7552459058433 537.0511335906544 742.3256781785451 536.8221759154069L742.3256781785451 536.8221759154069L721.1307390984892 536.5932182401594L705.1364100704842 536.8221759154069Q700.8843389587446 537.0511335906544 693.099778000329 537.0511335906544L693.099778000329 537.0511335906544ZM776.0151646792511 485.01232483082606Q776.0151646792511 474.6438129660457 770.4874722339896 470.1627841790586Q764.9270715494071 465.68175539207147 751.9746087782618 465.68175539207147L751.9746087782618 465.68175539207147L721.6213626883053 465.68175539207147L721.6213626883053 460.74281125458936L752.6941900433254 460.74281125458936Q765.1887374639756 460.74281125458936 770.4874722339896 456.8505307753815Q775.7862070040036 452.9909585354948 775.7862070040036 444.2578586367681L775.7862070040036 444.2578586367681Q775.7862070040036 443.7999432862731 777.1926612948097 443.7999432862731Q778.5991155856159 443.7999432862731 778.5991155856159 444.2578586367681L778.5991155856159 444.2578586367681L778.3701579103684 463.32676216095416Q778.3701579103684 470.1627841790586 778.5991155856159 473.69527402573453L778.5991155856159 473.69527402573453L778.8280732608634 485.01232483082606Q778.8280732608634 485.4702401813211 777.4216189700572 485.4702401813211Q776.0151646792511 485.4702401813211 776.0151646792511 485.01232483082606L776.0151646792511 485.01232483082606ZM844.9968414073957 517.9822300664684Q844.9968414073957 525.2761674350679 846.3051709802386 528.5796996064963Q847.6135005530816 531.8832317779248 851.1459903997576 533.0607283934835Q854.6784802464335 534.2382250090421 862.6592906407756 534.2382250090421L862.6592906407756 534.2382250090421Q863.1499142305917 534.2382250090421 863.1499142305917 535.6446792998483Q863.1499142305917 537.0511335906544 862.6592906407756 537.0511335906544L862.6592906407756 537.0511335906544Q856.0849345372397 537.0511335906544 852.3234870153162 536.8221759154069L852.3234870153162 536.8221759154069L837.4739463635487 536.5932182401594L823.5729446520924 536.8221759154069Q819.5825394549214 537.0511335906544 812.7465174368169 537.0511335906544L812.7465174368169 537.0511335906544Q812.2886020863219 537.0511335906544 812.2886020863219 535.6446792998483Q812.2886020863219 534.2382250090421 812.7465174368169 534.2382250090421L812.7465174368169 534.2382250090421Q820.7600360704799 534.2382250090421 824.292525917156 533.0607283934835Q827.825015763832 531.8832317779248 829.1006370973538 528.5796996064963Q830.4089666701967 525.2761674350679 830.4089666701967 517.9822300664684L830.4089666701967 517.9822300664684L830.4089666701967 445.9259788421429Q830.4089666701967 438.86099914879094 829.1006370973538 435.5574669773625Q827.825015763832 432.253934805934 824.1616929598716 430.9456052330911Q820.5310783952325 429.6699838995692 812.7465174368169 429.6699838995692L812.7465174368169 429.6699838995692Q812.2886020863219 429.6699838995692 812.2886020863219 428.26352960876306Q812.2886020863219 426.82436707863576 812.7465174368169 426.82436707863576L812.7465174368169 426.82436707863576L823.5729446520924 427.0860329932044Q832.0443786362505 427.5439483436994 837.4739463635487 427.5439483436994L837.4739463635487 427.5439483436994Q843.5903871165896 427.5439483436994 852.5524446905637 427.0860329932044L852.5524446905637 427.0860329932044L862.6592906407756 426.82436707863576Q863.1499142305917 426.82436707863576 863.1499142305917 428.26352960876306Q863.1499142305917 429.6699838995692 862.6592906407756 429.6699838995692L862.6592906407756 429.6699838995692Q855.1363955969285 429.6699838995692 851.374948075005 431.07643819037537Q847.6135005530816 432.4828924811816 846.3051709802386 435.9172576098943Q844.9968414073957 439.318914499286 844.9968414073957 446.3838941926379L844.9968414073957 446.3838941926379L844.9968414073957 517.9822300664684ZM912.1141484942391 517.4916064766524Q912.1141484942391 524.5565861700043 913.422478067082 527.9909512987169Q914.730807639925 531.3926081881087 918.263297486601 532.7990624789148Q921.795787333277 534.2382250090421 929.0897247018764 534.2382250090421L929.0897247018764 534.2382250090421Q929.7765977276189 534.2382250090421 929.7765977276189 535.6446792998483Q929.7765977276189 537.0511335906544 929.0897247018764 537.0511335906544L929.0897247018764 537.0511335906544Q922.711618034267 537.0511335906544 918.9501705123436 536.8221759154069L918.9501705123436 536.8221759154069L904.5912534503922 536.5932182401594L890.6902517389358 536.8221759154069Q886.9288042170123 537.0511335906544 880.3217398741554 537.0511335906544L880.3217398741554 537.0511335906544Q879.8638245236604 537.0511335906544 879.8638245236604 535.6446792998483Q879.8638245236604 534.2382250090421 880.3217398741554 534.2382250090421L880.3217398741554 534.2382250090421Q887.8773431573235 534.2382250090421 891.5079577219626 532.9298954361991Q895.1712805259228 531.6215658633562 896.577734816729 528.3507419312489Q897.9841891075351 525.0472097598204 897.9841891075351 517.9822300664684L897.9841891075351 517.9822300664684L897.9841891075351 445.9259788421429Q897.9841891075351 438.86099914879094 896.7085677740133 435.5574669773625Q895.4002382011704 432.253934805934 891.8677483544944 430.9456052330911Q888.3352585078185 429.6699838995692 881.041321139219 429.6699838995692L881.041321139219 429.6699838995692Q880.3217398741554 429.6699838995692 880.3217398741554 428.26352960876306Q880.3217398741554 426.82436707863576 881.041321139219 426.82436707863576L881.041321139219 426.82436707863576L896.3487771414815 427.0860329932044L907.8947856218206 426.82436707863576Q910.7076942034329 426.82436707863576 911.4272754684965 427.67478130098374Q912.1141484942391 428.49248728401056 912.1141484942391 431.3053958656229L912.1141484942391 431.3053958656229L912.1141484942391 517.4916064766524ZM904.1333380998971 454.1684551510535Q917.3147585462898 438.37037555897484 930.0382636421875 431.2072711476597Q942.7290604987642 424.01145849702345 957.1206858000365 424.01145849702345L957.1206858000365 424.01145849702345Q974.5214691188479 424.01145849702345 985.1189386588758 433.562264378777Q995.7164081989037 443.08036202120945 995.7164081989037 462.8688468104591L995.7164081989037 462.8688468104591L995.7164081989037 517.9822300664684Q995.7164081989037 525.0472097598204 996.7957800964991 528.448866649212Q997.8424437547734 531.8832317779248 1000.7861852936702 533.0607283934835Q1003.7299268325668 534.2382250090421 1010.1080335001761 534.2382250090421L1010.1080335001761 534.2382250090421Q1010.5659488506711 534.2382250090421 1010.5659488506711 535.6446792998483Q1010.5659488506711 537.0511335906544 1010.1080335001761 537.0511335906544L1010.1080335001761 537.0511335906544Q1004.2205504223829 537.0511335906544 1000.9170182509544 536.8221759154069L1000.9170182509544 536.8221759154069L988.4224708303042 536.5932182401594L973.6056384178578 536.8221759154069Q970.0731485711818 537.0511335906544 964.1856654933886 537.0511335906544L964.1856654933886 537.0511335906544Q963.6950419035725 537.0511335906544 963.6950419035725 535.6446792998483Q963.6950419035725 534.2382250090421 964.1856654933886 534.2382250090421L964.1856654933886 534.2382250090421Q971.7085605372355 534.2382250090421 975.3718833411957 532.7990624789148Q979.002497905835 531.3926081881087 980.3108274786779 527.9909512987169Q981.5864488121998 524.5565861700043 981.5864488121998 517.4916064766524L981.5864488121998 517.4916064766524L981.5864488121998 470.6534077688747Q981.5864488121998 448.0193061586916 973.7037631358211 439.18808154200167Q965.8210774594422 430.3568569253118 950.9715368076747 430.3568569253118L950.9715368076747 430.3568569253118Q939.1965706520882 430.3568569253118 928.958891744592 436.1462152851418Q918.721212837096 441.9028654056508 906.4883313310144 456.2617824676022L906.4883313310144 456.2617824676022L904.1333380998971 454.1684551510535ZM1100.2846493083766 538.4575878814607Q1099.3361103680654 538.9482114712767 1098.649237342323 538.9482114712767L1098.649237342323 538.9482114712767Q1094.3971662305835 538.9482114712767 1090.5048857513757 533.1588531114467Q1086.645313511489 527.4022029909377 1086.645313511489 517.4916064766524L1086.645313511489 517.4916064766524L1086.645313511489 457.70094499772944Q1086.645313511489 443.309319696457 1082.5240753570333 436.73496359292113Q1078.4028372025782 430.1278992500643 1069.440779628604 430.1278992500643L1069.440779628604 430.1278992500643Q1058.6143524133286 430.1278992500643 1053.5445753185622 436.83308831088436Q1048.474798223796 443.5709856110256 1045.6618896421833 454.397412826301L1045.6618896421833 454.397412826301Q1044.4843930266247 458.387818023472 1042.4891904280394 460.8736442118736Q1040.4612795901326 463.32676216095416 1036.4708743929618 463.32676216095416L1036.4708743929618 463.32676216095416Q1032.709426871038 463.32676216095416 1030.354433639921 461.1026018871211Q1027.9994404088034 458.8784416132881 1027.9994404088034 455.57490944185963L1027.9994404088034 455.57490944185963Q1027.9994404088034 449.68742636406637 1036.3400414356774 442.3934889954669Q1044.713350701872 435.0668433875464 1056.7172745327061 429.8989415748167Q1068.7211983635402 424.73103976208705 1078.4028372025782 424.73103976208705L1078.4028372025782 424.73103976208705Q1088.5096831527899 424.73103976208705 1094.6261239058308 431.2072711476597Q1100.7752728981927 437.6835025332323 1100.7752728981927 450.6359653043775L1100.7752728981927 450.6359653043775L1100.7752728981927 509.5107960823103Q1100.7752728981927 527.1732453156901 1112.2885731392107 527.1732453156901L1112.2885731392107 527.1732453156901Q1116.9985596014453 527.1732453156901 1123.8345816195497 524.0986708195093L1123.8345816195497 524.0986708195093L1124.3252052093658 524.0986708195093Q1125.241035910356 524.0986708195093 1125.6008265428877 525.1453344777835Q1125.9606171754194 526.224706375379 1125.0120782351082 526.682621725874L1125.0120782351082 526.682621725874L1100.2846493083766 538.4575878814607ZM1047.297301608237 538.6865455567081Q1039.0548252993262 538.6865455567081 1033.3962998967809 533.747601419226Q1027.770482733556 528.8086572817439 1027.770482733556 522.4632588534555L1027.770482733556 522.4632588534555Q1027.770482733556 513.5012012794814 1033.6579658113492 508.0716335521831Q1039.5454488891423 502.6747740642059 1055.5397779171476 496.78729098641264L1055.5397779171476 496.78729098641264L1089.2292644178538 484.52170124100996L1089.6871797683489 487.36731806194337L1060.47872205463 498.65166062771385Q1051.7783303952242 501.95519279914225 1048.2458405485481 506.20726391088186Q1044.713350701872 510.4266267833004 1044.713350701872 516.3141098610936L1044.713350701872 516.3141098610936Q1044.713350701872 521.9726352636394 1048.6056311810798 526.0938734180947Q1052.4979116602876 530.2151115725501 1057.6658134730174 530.2151115725501L1057.6658134730174 530.2151115725501Q1063.3243388755632 530.2151115725501 1070.1603608936675 526.682621725874L1070.1603608936675 526.682621725874L1091.3552999737235 515.8561945105987L1091.8132153242186 518.9307690067795L1071.0761915946578 530.4440692477975Q1062.833715285747 534.9250980347847 1057.43685579777 536.8221759154069Q1052.0072880704715 538.6865455567081 1047.297301608237 538.6865455567081L1047.297301608237 538.6865455567081ZM1177.999425935248 539.8640421722669Q1164.5890478136075 539.8640421722669 1155.7578231969178 532.3411471284198Q1146.9265985802276 524.8182520845728 1146.9265985802276 507.3847605264405L1146.9265985802276 507.3847605264405L1146.9265985802276 445.6643129275743Q1146.9265985802276 439.77682984978105 1146.1088925972008 437.3237119007005Q1145.258478374853 434.8378857122989 1142.8053604257725 434.02017972927206Q1140.319534237371 433.2024737462452 1134.6610088348252 433.2024737462452L1134.6610088348252 433.2024737462452Q1133.9741358090828 433.2024737462452 1133.9741358090828 431.66518649815475Q1133.9741358090828 430.1278992500643 1134.6610088348252 430.1278992500643L1134.6610088348252 430.1278992500643Q1144.0809817592944 430.1278992500643 1150.557213144867 425.1889551125821Q1157.0334445304397 420.2500109751 1157.5240681202558 412.46545001668443L1157.5240681202558 412.46545001668443Q1157.5240681202558 411.7785769909419 1159.1594800863095 411.7785769909419L1159.1594800863095 411.7785769909419Q1160.1080190266207 411.7785769909419 1160.4678096591524 416.4885634531765Q1160.8276002916841 421.1985499154111 1160.9257250096475 442.7205713886776Q1161.0565579669315 464.2753011012653 1161.0565579669315 499.8291572432725L1161.0565579669315 499.8291572432725Q1161.0565579669315 516.3141098610936 1167.4019563952202 524.2295037767935Q1173.7800630628294 532.1121894531723 1186.7325258339747 532.1121894531723L1186.7325258339747 532.1121894531723Q1199.194365015304 532.1121894531723 1208.6143379397731 525.7340827855629L1208.6143379397731 525.7340827855629L1209.1049615295892 525.5051251103155Q1209.7918345553317 525.5051251103155 1210.2824581451478 526.5844970079108Q1210.7403734956429 527.6311606661852 1210.020792230579 528.0890760166802L1210.020792230579 528.0890760166802Q1200.3718616308624 534.4671826842896 1193.2087572195474 537.1819665479388Q1186.0129445689108 539.8640421722669 1177.999425935248 539.8640421722669L1177.999425935248 539.8640421722669ZM1202.9558125372273 439.318914499286Q1182.4804547222348 433.88934677198773 1157.295110445008 433.88934677198773L1157.295110445008 433.88934677198773L1157.295110445008 429.6699838995692Q1173.5183971482606 429.6699838995692 1203.6753938022907 427.5439483436994L1203.6753938022907 427.5439483436994Q1204.3949750673546 427.5439483436994 1204.8528904178493 428.9504026345056Q1205.3108057683444 430.3568569253118 1205.3108057683444 432.7118501564291L1205.3108057683444 432.7118501564291Q1205.3108057683444 434.8378857122989 1204.4930997853176 437.1928789434162Q1203.6753938022907 439.5478721745335 1202.9558125372273 439.318914499286L1202.9558125372273 439.318914499286ZM1271.5122821541977 534.2382250090421Q1271.9701975046928 534.2382250090421 1271.9701975046928 535.6446792998483Q1271.9701975046928 537.0511335906544 1271.5122821541977 537.0511335906544L1271.5122821541977 537.0511335906544Q1264.9052178113411 537.0511335906544 1261.372727964665 536.8221759154069L1261.372727964665 536.8221759154069L1246.5231873128973 536.5932182401594L1232.6548938407623 536.8221759154069Q1228.63178040427 537.0511335906544 1221.7957583861657 537.0511335906544L1221.7957583861657 537.0511335906544Q1221.3378430356706 537.0511335906544 1221.3378430356706 535.6446792998483Q1221.3378430356706 534.2382250090421 1221.7957583861657 534.2382250090421L1221.7957583861657 534.2382250090421Q1229.5803193445813 534.2382250090421 1233.2436421485413 533.0607283934835Q1236.8742567131808 531.8832317779248 1238.280711003987 528.448866649212Q1239.719873534114 525.0472097598204 1239.719873534114 517.9822300664684L1239.719873534114 517.9822300664684L1239.719873534114 445.9259788421429Q1239.719873534114 438.86099914879094 1238.4115439612715 435.5574669773625Q1237.1032143884281 432.253934805934 1233.472599823789 430.9456052330911Q1229.8092770198286 429.6699838995692 1222.0574243007345 429.6699838995692L1222.0574243007345 429.6699838995692Q1221.5668007109184 429.6699838995692 1221.5668007109184 428.26352960876306Q1221.5668007109184 426.82436707863576 1222.0574243007345 426.82436707863576L1222.0574243007345 426.82436707863576L1232.8838515160096 427.0860329932044Q1241.3552855001676 427.5439483436994 1246.5231873128973 427.5439483436994L1246.5231873128973 427.5439483436994Q1250.7752584246373 427.5439483436994 1254.4385812285973 427.3149906684519Q1258.0691957932368 427.0860329932044 1260.6531466996012 426.82436707863576L1260.6531466996012 426.82436707863576Q1268.2087499827694 426.13749405289326 1274.5541484110577 426.13749405289326L1274.5541484110577 426.13749405289326Q1289.8616044133205 426.13749405289326 1297.8751230469834 432.0249771306865Q1305.8886416806463 437.9124602084798 1305.8886416806463 448.9678450990028L1305.8886416806463 448.9678450990028Q1305.8886416806463 458.6167756987195 1300.2301162781005 466.8592520076301Q1294.571590875555 475.1017283165407 1284.6937026005908 479.9425477360596Q1274.7831060863055 484.78336715557856 1263.0081399307187 484.78336715557856L1263.0081399307187 484.78336715557856Q1255.485244886872 484.78336715557856 1250.0556771595734 483.8348282152674L1250.0556771595734 483.8348282152674L1249.826719484326 479.1248417530328Q1255.7142025621192 480.76025371908645 1264.6762601360933 480.76025371908645L1264.6762601360933 480.76025371908645Q1279.2641348732923 480.76025371908645 1285.0534932331225 474.28402233351386Q1290.8101433536312 467.80779094794127 1290.8101433536312 455.34595176661213L1290.8101433536312 455.34595176661213Q1290.8101433536312 429.4410262243217 1268.4377076580167 429.4410262243217L1268.4377076580167 429.4410262243217Q1259.4756500840426 429.4410262243217 1256.7935744597148 433.2024737462452Q1254.0787905960656 436.9639212681687 1254.0787905960656 446.3838941926379L1254.0787905960656 446.3838941926379L1254.0787905960656 517.9822300664684Q1254.0787905960656 525.2761674350679 1255.256287211624 528.5796996064963Q1256.4337838271827 531.8832317779248 1259.9662736738587 533.0607283934835Q1263.4987635205348 534.2382250090421 1271.5122821541977 534.2382250090421L1271.5122821541977 534.2382250090421ZM1341.4424978226534 534.2382250090421Q1341.9004131731485 534.2382250090421 1341.9004131731485 535.6446792998483Q1341.9004131731485 537.0511335906544 1341.4424978226534 537.0511335906544L1341.4424978226534 537.0511335906544L1313.9021603143096 537.0511335906544Q1309.6500892025697 537.0511335906544 1298.5947043120468 522.4632588534555Q1287.506611182203 507.8426758769356 1272.1991551799406 482.42837392446125L1272.1991551799406 482.42837392446125L1284.6937026005908 477.45672154765805Q1298.3330383974785 499.8291572432725 1307.5240536467 511.8657893134276Q1316.7150688959218 523.8697131442617 1324.5977545723008 529.0376149569913Q1332.4804402486793 534.2382250090421 1341.4424978226534 534.2382250090421L1341.4424978226534 534.2382250090421ZM1426.680169493372 538.4575878814607Q1425.7643387923817 538.9482114712767 1425.0447575273183 538.9482114712767L1425.0447575273183 538.9482114712767Q1420.7926864155784 538.9482114712767 1416.933114175692 533.1588531114467Q1413.0408336964842 527.4022029909377 1413.0408336964842 517.4916064766524L1413.0408336964842 517.4916064766524L1413.0408336964842 457.70094499772944Q1413.0408336964842 443.309319696457 1408.9195955420287 436.73496359292113Q1404.7983573875736 430.1278992500643 1395.8362998135995 430.1278992500643L1395.8362998135995 430.1278992500643Q1385.009872598324 430.1278992500643 1379.9400955035576 436.83308831088436Q1374.8703184087913 443.5709856110256 1372.0574098271786 454.397412826301L1372.0574098271786 454.397412826301Q1370.87991321162 458.387818023472 1368.8847106130347 460.8736442118736Q1366.889508014449 463.32676216095416 1362.8663945779567 463.32676216095416L1362.8663945779567 463.32676216095416Q1359.1049470560333 463.32676216095416 1356.7499538249162 461.1026018871211Q1354.3949605937987 458.8784416132881 1354.3949605937987 455.57490944185963L1354.3949605937987 455.57490944185963Q1354.3949605937987 449.68742636406637 1362.7682698599938 442.3934889954669Q1371.1088708868674 435.0668433875464 1383.1127947177015 429.8989415748167Q1395.1494267878566 424.73103976208705 1404.7983573875736 424.73103976208705L1404.7983573875736 424.73103976208705Q1414.9052033377852 424.73103976208705 1421.0543523301471 431.2072711476597Q1427.170793083188 437.6835025332323 1427.170793083188 450.6359653043775L1427.170793083188 450.6359653043775L1427.170793083188 509.5107960823103Q1427.170793083188 527.1732453156901 1438.716801563527 527.1732453156901L1438.716801563527 527.1732453156901Q1443.4267880257617 527.1732453156901 1450.230101804545 524.0986708195093L1450.230101804545 524.0986708195093L1450.7207253943611 524.0986708195093Q1451.6692643346723 524.0986708195093 1451.996346727883 525.1453344777835Q1452.3561373604148 526.224706375379 1451.4075984201036 526.682621725874L1451.4075984201036 526.682621725874L1426.680169493372 538.4575878814607ZM1373.6928217932323 538.6865455567081Q1365.450345484322 538.6865455567081 1359.8245283210972 533.747601419226Q1354.1660029185514 528.8086572817439 1354.1660029185514 522.4632588534555L1354.1660029185514 522.4632588534555Q1354.1660029185514 513.5012012794814 1360.0534859963445 508.0716335521831Q1365.9409690741377 502.6747740642059 1381.935298102143 496.78729098641264L1381.935298102143 496.78729098641264L1415.624784602849 484.52170124100996L1416.0826999533438 487.36731806194337L1386.9069504789463 498.65166062771385Q1378.1738505802196 501.95519279914225 1374.6413607335435 506.20726391088186Q1371.1088708868674 510.4266267833004 1371.1088708868674 516.3141098610936L1371.1088708868674 516.3141098610936Q1371.1088708868674 521.9726352636394 1375.0011513660752 526.0938734180947Q1378.893431845283 530.2151115725501 1384.0613336580127 530.2151115725501L1384.0613336580127 530.2151115725501Q1389.7198590605585 530.2151115725501 1396.5558810786629 526.682621725874L1396.5558810786629 526.682621725874L1417.7508201587189 515.8561945105987L1418.208735509214 518.9307690067795L1397.504420018974 530.4440692477975Q1389.2619437100634 534.9250980347847 1383.8323759827654 536.8221759154069Q1378.4028082554669 538.6865455567081 1373.6928217932323 538.6865455567081L1373.6928217932323 538.6865455567081ZM1524.9030121745564 424.01145849702345Q1533.8323615092095 424.01145849702345 1544.1027486560265 425.77770342036143Q1554.3404275635226 427.5439483436994 1560.6858259918113 430.84748051512787L1560.6858259918113 430.84748051512787Q1562.353946197186 431.5343535408704 1562.811861547681 432.253934805934Q1563.2697768981761 432.9735160709977 1563.5314428127444 434.8378857122989L1563.5314428127444 434.8378857122989L1565.886436043862 459.10739928853565Q1565.886436043862 459.79427231427815 1564.578106471019 460.0559382288468Q1563.2697768981761 460.2848959040943 1563.0408192229288 459.33635696378315L1563.0408192229288 459.33635696378315Q1558.8214563505098 443.08036202120945 1547.6352385027026 435.328509302115Q1536.4490206548958 427.5439483436994 1519.9640680370744 427.5439483436994L1519.9640680370744 427.5439483436994Q1507.6984782916716 427.5439483436994 1497.8205900167077 434.1510126865563Q1487.909993502422 440.72536879009215 1482.3823010571605 452.1405443131469Q1476.854608611899 463.58842807552276 1476.854608611899 477.94734513747414L1476.854608611899 477.94734513747414Q1476.854608611899 492.53521987467303 1482.5131340144449 506.0764309535976Q1488.1716594169907 519.6176420325221 1499.357877264798 528.0890760166802Q1510.5440951126052 536.5932182401594 1526.3094664653627 536.5932182401594L1526.3094664653627 536.5932182401594Q1540.6683835273138 536.5932182401594 1550.6771047595626 528.5796996064963Q1560.6858259918113 520.5661809728333 1565.166854778798 504.08122835501206L1565.166854778798 504.08122835501206Q1565.166854778798 503.36164708994846 1566.344351394357 503.36164708994846L1566.344351394357 503.36164708994846Q1566.8022667448517 503.36164708994846 1567.3910150526312 503.7214377224803Q1567.9797633604107 504.08122835501206 1567.9797633604107 504.3101860302596L1567.9797633604107 504.3101860302596L1564.9378971035508 529.2665726322389Q1564.7089394283034 531.1636505128612 1564.2183158384873 531.8832317779248Q1563.7604004879918 532.5701048036674 1561.6343649321225 533.5186437439785L1561.6343649321225 533.5186437439785Q1543.5140003482475 539.8640421722669 1523.9544732342456 539.8640421722669L1523.9544732342456 539.8640421722669Q1501.5820375386306 539.8640421722669 1487.2231204766795 530.9346928376136Q1472.8642034147279 521.9726352636394 1466.4860967471186 508.5622571419992Q1460.1406983188303 495.11917078103784 1460.1406983188303 481.4798349841501L1460.1406983188303 481.4798349841501Q1460.1406983188303 465.45279771682397 1468.6121323029884 452.2713772704312Q1477.0835662871464 439.0899568240385 1491.933106938914 431.5343535408704Q1506.7499393513604 424.01145849702345 1524.9030121745564 424.01145849702345L1524.9030121745564 424.01145849702345ZM1586.5907515341019 537.0511335906544Q1586.1328361836067 537.0511335906544 1586.1328361836067 535.6446792998483Q1586.1328361836067 534.2382250090421 1586.5907515341019 534.2382250090421L1586.5907515341019 534.2382250090421Q1594.375312492517 534.2382250090421 1598.0059270571564 533.0607283934835Q1601.6692498611164 531.8832317779248 1603.0757041519228 528.448866649212Q1604.482158442729 525.0472097598204 1604.482158442729 517.9822300664684L1604.482158442729 517.9822300664684L1604.482158442729 445.9259788421429Q1604.482158442729 438.86099914879094 1603.2065371092071 435.5574669773625Q1601.8982075363642 432.253934805934 1598.2675929717248 430.9456052330911Q1594.6042701677648 429.6699838995692 1586.8197092093492 429.6699838995692L1586.8197092093492 429.6699838995692Q1586.361793858854 429.6699838995692 1586.361793858854 428.26352960876306Q1586.361793858854 426.82436707863576 1586.8197092093492 426.82436707863576L1586.8197092093492 426.82436707863576L1597.417178749377 427.0860329932044Q1606.379236323351 427.5439483436994 1611.3181804608334 427.5439483436994L1611.3181804608334 427.5439483436994Q1617.2056635386266 427.5439483436994 1626.1677211126012 427.0860329932044L1626.1677211126012 427.0860329932044L1636.2745670628128 426.82436707863576Q1636.7651906526285 426.82436707863576 1636.7651906526285 428.26352960876306Q1636.7651906526285 429.6699838995692 1636.2745670628128 429.6699838995692L1636.2745670628128 429.6699838995692Q1628.7516720189656 429.6699838995692 1624.9902244970422 431.07643819037537Q1621.2287769751188 432.4828924811816 1619.9204474022758 435.9172576098943Q1618.612117829433 439.318914499286 1618.612117829433 446.3838941926379L1618.612117829433 446.3838941926379L1618.612117829433 517.9822300664684Q1618.612117829433 525.2761674350679 1619.9204474022758 528.5796996064963Q1621.2287769751188 531.8832317779248 1624.7612668217948 533.0607283934835Q1628.293756668471 534.2382250090421 1636.2745670628128 534.2382250090421L1636.2745670628128 534.2382250090421Q1636.7651906526285 534.2382250090421 1636.7651906526285 535.6446792998483Q1636.7651906526285 537.0511335906544 1636.2745670628128 537.0511335906544L1636.2745670628128 537.0511335906544Q1629.7002109592768 537.0511335906544 1625.9387634373534 536.8221759154069L1625.9387634373534 536.8221759154069L1611.3181804608334 536.5932182401594L1597.417178749377 536.8221759154069Q1593.4267735522058 537.0511335906544 1586.5907515341019 537.0511335906544L1586.5907515341019 537.0511335906544ZM1679.3840264879877 537.0511335906544Q1671.861131444141 537.0511335906544 1670.6836348285824 536.3315523255908Q1669.5061382130239 535.6446792998483 1663.4878221779463 526.0938734180947Q1657.4695061428683 516.5757757756622 1646.6430789275933 502.9037317394534L1646.6430789275933 502.9037317394534L1626.8545941383436 477.7183874622266L1637.223106003124 468.52737221300487L1654.4276398860088 490.4091843188032Q1672.0900891193883 513.2722436042338 1678.926111137493 521.1549292806126Q1685.7294249162765 529.0376149569913 1690.7992020110428 531.6215658633562Q1695.868979105809 534.2382250090421 1704.1114554147198 534.2382250090421L1704.1114554147198 534.2382250090421Q1704.8310366797832 534.2382250090421 1704.8310366797832 535.6446792998483Q1704.8310366797832 537.0511335906544 1704.1114554147198 537.0511335906544L1704.1114554147198 537.0511335906544L1679.3840264879877 537.0511335906544ZM1656.0630518520625 445.43535525232676Q1665.4830247765317 436.50600591767363 1665.4830247765317 433.2024737462452L1665.4830247765317 433.2024737462452Q1665.4830247765317 431.3053958656229 1662.8990738701668 430.48768988259604Q1660.315122963802 429.6699838995692 1654.4276398860088 429.6699838995692L1654.4276398860088 429.6699838995692Q1653.708058620945 429.6699838995692 1653.708058620945 428.26352960876306Q1653.708058620945 426.82436707863576 1654.4276398860088 426.82436707863576L1654.4276398860088 426.82436707863576L1663.1280315454142 427.0860329932044Q1670.6836348285824 427.5439483436994 1678.6644452229243 427.5439483436994L1678.6644452229243 427.5439483436994Q1687.8554604721462 427.5439483436994 1694.920440165498 427.0860329932044L1694.920440165498 427.0860329932044Q1697.0464757213676 426.82436707863576 1700.1210502175486 426.82436707863576L1700.1210502175486 426.82436707863576Q1700.8079232432915 426.82436707863576 1700.8079232432915 428.26352960876306Q1700.8079232432915 429.6699838995692 1700.1210502175486 429.6699838995692L1700.1210502175486 429.6699838995692Q1692.1075315838857 429.6699838995692 1681.1502714113262 434.02017972927206Q1670.1930112387663 438.37037555897484 1661.0019959895444 447.33243313294906L1661.0019959895444 447.33243313294906L1614.3927549570144 493.0258434644891L1608.7342295544686 493.0258434644891L1656.0630518520625 445.43535525232676ZM1761.0892083120302 539.8640421722669Q1744.3752980189615 539.8640421722669 1732.5022071454118 531.981356495888Q1720.5964080325411 524.0986708195093 1714.5780919974632 511.37516572361153Q1708.5924842017066 498.65166062771385 1708.5924842017066 484.0637858905149L1708.5924842017066 484.0637858905149Q1708.5924842017066 467.80779094794127 1716.3443369208012 454.03762219376915Q1724.1288978792168 440.26745343959715 1737.081360650362 432.253934805934Q1750.0338234215073 424.24041617227095 1765.3412794237697 424.24041617227095L1765.3412794237697 424.24041617227095Q1781.1066507765277 424.24041617227095 1789.1201694101906 432.9735160709977Q1797.1336880438535 441.6739077304033 1797.1336880438535 456.5234483821708L1797.1336880438535 456.5234483821708Q1797.1336880438535 458.8784416132881 1796.5449397360744 459.9251052715625Q1795.956191428295 460.9717689298368 1794.3207794622413 460.9717689298368L1794.3207794622413 460.9717689298368L1780.4197777507848 460.9717689298368Q1780.6487354260325 459.10739928853565 1780.6487354260325 455.8038671171072L1780.6487354260325 455.8038671171072Q1780.6487354260325 442.85140434596195 1774.9902100234867 435.9172576098943Q1769.331684620941 428.9504026345056 1758.0473420551702 428.9504026345056L1758.0473420551702 428.9504026345056Q1748.3984114554537 428.9504026345056 1740.6138504970381 434.6089280370513Q1732.8292895386226 440.26745343959715 1728.4790937089197 450.864922979625Q1724.1288978792168 461.46239251965295 1724.1288978792168 475.82130958160434L1724.1288978792168 475.82130958160434Q1724.1288978792168 491.8483468489305 1729.5584656065153 504.66997666279144Q1734.9553250944923 517.4916064766524 1745.3238369592727 524.8182520845728Q1755.6923488240532 532.1121894531723 1769.5933505355097 532.1121894531723L1769.5933505355097 532.1121894531723Q1776.396664314293 532.1121894531723 1783.4616440076447 530.2151115725501Q1790.5266237009969 528.3507419312489 1795.956191428295 524.3276284947567L1795.956191428295 524.3276284947567L1796.1851491035427 524.3276284947567Q1796.9047303686061 524.3276284947567 1797.4934786763856 525.1453344777835Q1798.0822269841647 525.9957487001316 1797.5916033943486 526.682621725874L1797.5916033943486 526.682621725874Q1780.8776931012799 539.8640421722669 1761.0892083120302 539.8640421722669L1761.0892083120302 539.8640421722669ZM1719.4189114169822 461.23343484440545L1719.1899537417348 457.92990267297694L1784.900806537772 456.7524060574183L1784.900806537772 460.9717689298368L1719.4189114169822 461.23343484440545ZM1861.4380865490848 534.2382250090421Q1861.89600189958 534.2382250090421 1861.89600189958 535.6446792998483Q1861.89600189958 537.0511335906544 1861.4380865490848 537.0511335906544L1861.4380865490848 537.0511335906544Q1854.8310222062278 537.0511335906544 1851.2985323595517 536.8221759154069L1851.2985323595517 536.8221759154069L1836.4489917077844 536.5932182401594L1822.580698235649 536.8221759154069Q1818.5575847991572 537.0511335906544 1811.7215627810524 537.0511335906544L1811.7215627810524 537.0511335906544Q1811.2636474305573 537.0511335906544 1811.2636474305573 535.6446792998483Q1811.2636474305573 534.2382250090421 1811.7215627810524 534.2382250090421L1811.7215627810524 534.2382250090421Q1819.506123739468 534.2382250090421 1823.1694465434284 533.0607283934835Q1826.8000611080674 531.8832317779248 1828.2065153988738 528.448866649212Q1829.645677929001 525.0472097598204 1829.645677929001 517.9822300664684L1829.645677929001 517.9822300664684L1829.645677929001 445.9259788421429Q1829.645677929001 438.86099914879094 1828.3373483561581 435.5574669773625Q1827.0290187833152 432.253934805934 1823.3984042186758 430.9456052330911Q1819.7350814147158 429.6699838995692 1811.9832286956212 429.6699838995692L1811.9832286956212 429.6699838995692Q1811.492605105805 429.6699838995692 1811.492605105805 428.26352960876306Q1811.492605105805 426.82436707863576 1811.9832286956212 426.82436707863576L1811.9832286956212 426.82436707863576L1822.8096559108967 427.0860329932044Q1831.2810898950547 427.5439483436994 1836.4489917077844 427.5439483436994L1836.4489917077844 427.5439483436994Q1840.701062819524 427.5439483436994 1844.364385623484 427.3149906684519Q1847.9950001881234 427.0860329932044 1850.5789510944883 426.82436707863576L1850.5789510944883 426.82436707863576Q1858.134554377656 426.13749405289326 1864.4799528059443 426.13749405289326L1864.4799528059443 426.13749405289326Q1879.7874088082071 426.13749405289326 1887.80092744187 432.0249771306865Q1895.8144460755334 437.9124602084798 1895.8144460755334 448.9678450990028L1895.8144460755334 448.9678450990028Q1895.8144460755334 458.6167756987195 1890.1559206729876 466.8592520076301Q1884.4973952704418 475.1017283165407 1874.6195069954774 479.9425477360596Q1864.708910481192 484.78336715557856 1852.9339443256054 484.78336715557856L1852.9339443256054 484.78336715557856Q1845.4110492817586 484.78336715557856 1839.9814815544605 483.8348282152674L1839.9814815544605 483.8348282152674L1839.7525238792127 479.1248417530328Q1845.6400069570059 480.76025371908645 1854.60206453098 480.76025371908645L1854.60206453098 480.76025371908645Q1869.189939268179 480.76025371908645 1874.9792976280091 474.28402233351386Q1880.7359477485184 467.80779094794127 1880.7359477485184 455.34595176661213L1880.7359477485184 455.34595176661213Q1880.7359477485184 429.4410262243217 1858.3635120529038 429.4410262243217L1858.3635120529038 429.4410262243217Q1849.4014544789297 429.4410262243217 1846.7193788546015 433.2024737462452Q1844.0045949909522 436.9639212681687 1844.0045949909522 446.3838941926379L1844.0045949909522 446.3838941926379L1844.0045949909522 517.9822300664684Q1844.0045949909522 525.2761674350679 1845.1820916065108 528.5796996064963Q1846.3595882220698 531.8832317779248 1849.8920780687454 533.0607283934835Q1853.4245679154214 534.2382250090421 1861.4380865490848 534.2382250090421L1861.4380865490848 534.2382250090421ZM1931.3683022175405 534.2382250090421Q1931.8262175680356 534.2382250090421 1931.8262175680356 535.6446792998483Q1931.8262175680356 537.0511335906544 1931.3683022175405 537.0511335906544L1931.3683022175405 537.0511335906544L1903.8279647091963 537.0511335906544Q1899.5758935974568 537.0511335906544 1888.520508706934 522.4632588534555Q1877.43241557709 507.8426758769356 1862.1249595748272 482.42837392446125L1862.1249595748272 482.42837392446125L1874.6195069954774 477.45672154765805Q1888.2588427923652 499.8291572432725 1897.449858041587 511.8657893134276Q1906.6408732908085 523.8697131442617 1914.5235589671875 529.0376149569913Q1922.4062446435664 534.2382250090421 1931.3683022175405 534.2382250090421L1931.3683022175405 534.2382250090421Z " fill="#b88746" transform="matrix(0.45293925637454713,0,0,0.452939256374547,0,89.44480491513923)"/></g></svg>